<?xml version="1.0" encoding="UTF-8"?>
<svg width="1200pt" height="1200pt" version="1.1" viewBox="0 0 1200 1200" xmlns="http://www.w3.org/2000/svg">
 <path d="m1120.7 181.18-21.328-21.328 8.9531-14.766c5.7188-9.3281 4.2656-21.375-3.4688-29.062-13.359-12-28.5-37.078-49.641-24.094l-14.766 8.9531-21.375-21.281c-5.5312-5.3906-14.391-5.2969-19.828 0.1875-5.4844 5.4375-5.5781 14.297-0.1875 19.828l16.406 16.406-8.6719 5.25-14.719-14.719v0.046875c-5.5781-5.3906-14.391-5.2969-19.875 0.14062-5.4844 5.4844-5.5312 14.344-0.1875 19.922l9.7969 9.7969c-12.281 6.2344-24.469 15.844-20.578 31.219l-458.29 427.55c-256.78-146.06-538.45 142.82-383.86 395.68l-10.594 17.344h-0.046875c-12.656 20.625-9.4688 47.25 7.6875 64.359l11.578 11.578v-0.046876c17.109 17.156 43.734 20.344 64.359 7.6875l17.297-10.547c45.047 28.312 97.172 43.359 150.37 43.359 216.52 2.5312 356.11-240.61 245.34-427.26l427.78-458.58c14.766 4.7344 25.078-8.6719 30.984-20.344l9.7969 9.7969c5.5781 5.3438 14.391 5.25 19.828-0.1875 5.4844-5.4844 5.5781-14.297 0.23438-19.875l-14.719-14.719 5.25-8.6719 16.406 16.406v0.046875c5.5781 5.3438 14.391 5.25 19.875-0.1875 5.4375-5.4844 5.5312-14.297 0.1875-19.875zm-53.906-63.141 15.422 15.422-45.516 75.047-44.953-44.906zm-110.62 161.39-35.344-35.344 21.188-19.781 33.891 33.891zm-39.141 41.953-38.156-38.156 21.188-19.781 36.703 36.703zm-39.094 41.906-40.969-40.969 21.188-19.781 39.516 39.562zm-39.141 41.953-43.781-43.781 21.188-19.781 42.328 42.328zm-39.141 41.953-46.594-46.594 21.188-19.781 45.141 45.141zm-39.141 41.953-49.359-49.406 21.188-19.781 48 47.953zm-39.094 41.906-52.219-52.219 21.188-19.781 50.812 50.812zm-39.141 41.953-54.984-55.031 21.188-19.781 53.578 53.578zm-39.094 41.953-57.844-57.844 21.188-19.781 56.438 56.391zm-66.562 71.344-62.625-62.625 50.625-47.203 59.203 59.25zm-313.5 215.21-40.266 40.969-13.031-13.031 41.625-39.609zm13.359 13.359 10.547 10.547-39.609 41.625-11.203-11.203zm-15.703 65.531 39.609-41.625 10.078 10.078-39.328 41.859zm-6.375-127.69 4.5469-4.5469 93.141 93.094-4.5469 4.5469zm66.234 17.062 197.86-201.47 7.0312 7.0312-194.86 204.42zm184.45-214.87-197.76 201.52-10.219-10.219 204.47-194.86zm-161.02 238.26 194.86-204.47 8.4375 8.4375-193.5 205.82zm-165.28-233.68c39.141-38.812 89.766-64.031 144.32-71.906 54.562-7.875 110.25 2.0156 158.76 28.172-6 8.1562-0.32812 16.734 6.2812 22.219l-204.42 194.86-14.719-14.719c-5.625-5.3438-14.438-5.3438-20.062 0l-24.609 24.609v-0.046876c-2.625 2.6719-4.125 6.2812-4.125 10.031 0 3.7969 1.5 7.4062 4.125 10.031l13.688 13.688-41.578 39.656-6.9375-6.9844c-3.0938-3-7.4062-4.5-11.719-3.9844-4.3125 0.51563-8.1094 2.9531-10.406 6.6562l-31.734 51.938c-26.672-48.562-36.891-104.44-29.109-159.28 7.7344-54.844 33.094-105.7 72.234-144.94zm-1.5469 408.14c-9.4688 5.7656-21.656 4.3125-29.484-3.5156l-11.578-11.578c-7.875-7.8281-9.3281-20.062-3.5156-29.531l49.547-81.094 76.172 76.172zm363.52-46.125c-39.188 39.094-90.047 64.453-144.89 72.234-54.844 7.7344-110.72-2.4844-159.28-29.156l51.938-31.688c3.6562-2.2969 6.1406-6.1406 6.6094-10.453 0.51562-4.2656-0.9375-8.5781-3.9844-11.672l-6.6094-6.6094 39.328-41.859c5.8594 4.4531 15 18.844 23.672 17.766 8.3438 1.6406 24.656-20.062 34.641-28.734l-0.046875-0.046875c2.6719-2.625 4.1719-6.2344 4.1719-10.031 0-3.75-1.5-7.3594-4.1719-9.9844l-14.906-14.906 193.5-205.78c5.9531 6.9844 14.625 14.438 23.766 7.8281v-0.046875c26.203 48.562 36.047 104.2 28.219 158.81-7.875 54.562-33.094 105.14-71.953 144.32zm454.55-784.03-32.531-32.531 15.656-14.578 31.453 31.5z"/>
</svg>
